<?xml version="1.0" encoding="UTF-8"?>
<svg version="1.1" viewBox="0 0 1014.9 1067.1" xmlns="http://www.w3.org/2000/svg" xmlns:xlink="http://www.w3.org/1999/xlink">
 <defs>
  <linearGradient id="a">
   <stop stop-color="#63001a" offset="0"/>
   <stop stop-color="#cb0036" offset="1"/>
  </linearGradient>
  <linearGradient id="c">
   <stop offset="0"/>
   <stop stop-opacity="0" offset="1"/>
  </linearGradient>
  <linearGradient id="as">
   <stop stop-color="#abdceb" offset="0"/>
   <stop stop-color="#abdceb" offset=".2"/>
   <stop stop-color="#f6ff6f" offset=".4"/>
   <stop stop-color="#fff" offset="1"/>
  </linearGradient>
  <linearGradient id="b">
   <stop stop-color="#ff0" offset="0"/>
   <stop stop-color="#fff" offset="1"/>
  </linearGradient>
  <linearGradient id="cb" x1="-489.01" x2="-478.99" y1="253.55" y2="247.77" gradientTransform="matrix(7.0738 0 0 7.0738 3608.6 -1898.2)" gradientUnits="userSpaceOnUse" spreadMethod="reflect" xlink:href="#b"/>
  <linearGradient id="cc" x1="-594.12" x2="-593.65" y1="201.97" y2="203.63" gradientTransform="matrix(7.0738 0 0 7.0738 3608.6 -1898.2)" gradientUnits="userSpaceOnUse" xlink:href="#as" spreadMethod="reflect"/>
  <linearGradient id="at" x1="-522.74" x2="-520" y1="312.52" y2="312.52" gradientTransform="matrix(7.0738 0 0 7.0738 3608.6 -1898.2)" gradientUnits="userSpaceOnUse" xlink:href="#as" spreadMethod="reflect"/>
  <linearGradient id="cd" x1="-468.64" x2="-467.4" y1="222.99" y2="227.37" gradientTransform="matrix(7.0738 0 0 7.0738 3608.6 -1898.2)" gradientUnits="userSpaceOnUse" xlink:href="#c"/>
  <linearGradient id="ce" x1="-526.54" x2="-528.19" y1="232.91" y2="240.19" gradientTransform="matrix(7.0738 0 0 7.0738 3608.6 -1898.2)" gradientUnits="userSpaceOnUse" xlink:href="#c"/>
  <radialGradient id="bg" cx="-509.58" cy="-15.628" r="98.031" gradientTransform="matrix(3.1755 .033013 -.039538 3.8032 1157.6 -288.24)" gradientUnits="userSpaceOnUse" xlink:href="#c"/>
  <linearGradient id="cf" x1="-517.39" x2="-520" y1="312.52" y2="312.52" gradientTransform="matrix(7.0738 0 0 7.0738 3608.6 -1898.2)" gradientUnits="userSpaceOnUse" xlink:href="#as" spreadMethod="reflect"/>
  <linearGradient id="cg" x1="-613.67" x2="-437.99" y1="266.87" y2="266.87" gradientTransform="matrix(7.0738 0 0 7.0738 3608.6 -1898.2)" gradientUnits="userSpaceOnUse" xlink:href="#c"/>
  <radialGradient id="bh" cx="-70.266" cy="52.973" r="10.484" gradientTransform="matrix(1 0 0 47.633 2 -2531.6)" gradientUnits="userSpaceOnUse" xlink:href="#c"/>
  <filter id="bp" color-interpolation-filters="sRGB">
   <feGaussianBlur stdDeviation="3.9755469"/>
  </filter>
  <linearGradient id="au" x1="-1222.5" x2="1065.6" y1="7.0781" y2="7.0781" gradientUnits="userSpaceOnUse" xlink:href="#c"/>
  <linearGradient id="av" x1="-385.9" x2="-346.64" y1="-144.54" y2="-155.06" gradientUnits="userSpaceOnUse" spreadMethod="reflect" xlink:href="#a"/>
  <radialGradient id="bi" cx="-63.005" cy="-573.48" r="76.084" gradientTransform="matrix(1 0 0 .68853 0 -163.07)" gradientUnits="userSpaceOnUse" xlink:href="#a"/>
  <radialGradient id="bj" cx="-101.53" cy="-660.58" r="78.507" gradientTransform="matrix(1 0 0 1.2084 -4.8304 156.09)" gradientUnits="userSpaceOnUse" xlink:href="#a"/>
  <radialGradient id="bk" cx="-23.606" cy="-590.49" r="116.11" gradientTransform="matrix(1 0 0 .60812 0 -231.4)" gradientUnits="userSpaceOnUse" xlink:href="#a"/>
  <radialGradient id="bl" cx="-195.59" cy="-652.83" r="103.75" gradientTransform="matrix(1 0 0 1.0019 -.83042 35.693)" gradientUnits="userSpaceOnUse" xlink:href="#a"/>
  <radialGradient id="bm" cx="-13.094" cy="-623.43" r="106.9" gradientTransform="matrix(1 0 0 .92357 -4.8304 -29.218)" gradientUnits="userSpaceOnUse" xlink:href="#a"/>
  <linearGradient id="aw" x1="75.844" x2="142.65" y1="-497.03" y2="-497.03" gradientUnits="userSpaceOnUse" xlink:href="#b"/>
  <linearGradient id="ax" x1="8.9688" x2="106.22" y1="-493.28" y2="-493.28" gradientUnits="userSpaceOnUse" xlink:href="#b"/>
  <linearGradient id="ay" x1="-613.67" x2="-437.99" y1="266.87" y2="266.87" gradientTransform="matrix(7.0738 0 0 7.0738 3608.6 -1898.2)" gradientUnits="userSpaceOnUse" spreadMethod="reflect" xlink:href="#c"/>
  <radialGradient id="bn" cx="-61.658" cy="-276.24" r="14.094" gradientTransform="matrix(.74245 0 0 21.473 -17.186 5698.5)" gradientUnits="userSpaceOnUse" xlink:href="#c"/>
  <linearGradient id="az" x1="-286.94" x2="-97.625" y1="-636.27" y2="-636.27" gradientTransform="translate(-4.8304 18.431)" gradientUnits="userSpaceOnUse" xlink:href="#b"/>
  <filter id="bq" color-interpolation-filters="sRGB">
   <feGaussianBlur stdDeviation="3.2303125"/>
  </filter>
  <filter id="br" color-interpolation-filters="sRGB">
   <feGaussianBlur stdDeviation="2.9944755"/>
  </filter>
  <radialGradient id="bo" cx="-18.488" cy="-242.47" r="239.58" gradientTransform="matrix(1.927 -.52307 .081182 .29907 73.035 -321.47)" gradientUnits="userSpaceOnUse">
   <stop stop-color="#fff" offset="0"/>
   <stop stop-color="#fff" stop-opacity="0" offset="1"/>
  </radialGradient>
  <linearGradient id="bs" x1="-152.46" x2="-125.29" y1="-654.32" y2="-670.03" gradientTransform="translate(-4.8304 18.431)" gradientUnits="userSpaceOnUse" spreadMethod="reflect" xlink:href="#b"/>
  <linearGradient id="bt" x1="-152.46" x2="-125.29" y1="-654.32" y2="-670.03" gradientTransform="matrix(.70711 .70711 -.70711 .70711 -387.46 -84.927)" gradientUnits="userSpaceOnUse" spreadMethod="reflect" xlink:href="#b"/>
  <radialGradient id="bd" cx="35.655" cy="-493.47" r="119.98" gradientTransform="matrix(1 0 0 .49467 0 -249.37)" gradientUnits="userSpaceOnUse" xlink:href="#a"/>
  <radialGradient id="be" cx="19.298" cy="-488.79" r="86.062" gradientTransform="matrix(6.1497 0 0 .84305 -109.01 -58.99)" gradientUnits="userSpaceOnUse" xlink:href="#a"/>
  <radialGradient id="bf" cx="-243.55" cy="-485.53" r="127.52" gradientTransform="matrix(1 0 0 .4625 0 -260.97)" gradientUnits="userSpaceOnUse" xlink:href="#a"/>
  <linearGradient id="by" x1="-288.6" x2="-276.27" y1="-493.52" y2="-442.17" gradientUnits="userSpaceOnUse" xlink:href="#a"/>
  <linearGradient id="bz" x1="34.973" x2="35.701" y1="-550.35" y2="-620.61" gradientUnits="userSpaceOnUse" xlink:href="#b"/>
  <linearGradient id="ca" x1="92.508" x2="81.337" y1="-590.49" y2="-607.39" gradientUnits="userSpaceOnUse" xlink:href="#b"/>
  <radialGradient id="ba" cx="-198.17" cy="-568.88" r="128.31" gradientTransform="matrix(1 0 0 .4368 0 -320.39)" gradientUnits="userSpaceOnUse" xlink:href="#a"/>
  <radialGradient id="bb" cx="-23.606" cy="-590.49" r="116.11" gradientTransform="matrix(-.7598 0 0 .6574 -187.99 -177.53)" gradientUnits="userSpaceOnUse" xlink:href="#a"/>
  <radialGradient id="bc" cx="-113.49" cy="-409.76" r="95.223" gradientTransform="matrix(1.3138 0 0 .81231 66.979 -70.788)" gradientUnits="userSpaceOnUse" xlink:href="#a"/>
  <linearGradient id="bu" x1="555.41" x2="573.24" y1="206.45" y2="257.45" gradientUnits="userSpaceOnUse" spreadMethod="reflect" xlink:href="#b"/>
  <linearGradient id="bv" x1="400.24" x2="418.59" y1="132.22" y2="113.22" gradientUnits="userSpaceOnUse" spreadMethod="reflect" xlink:href="#b"/>
  <linearGradient id="bw" x1="329.96" x2="400.24" y1="165.73" y2="132.22" gradientUnits="userSpaceOnUse" spreadMethod="reflect" xlink:href="#b"/>
  <linearGradient id="bx" x1="324.17" x2="383.88" y1="250.14" y2="250.14" gradientUnits="userSpaceOnUse" spreadMethod="reflect" xlink:href="#b"/>
 </defs>
 <g transform="translate(601.88 737.01)">
  <path d="m-39.302-630.5c-9.7202 42.983-49.106 63.725-66.145 54.057-17.039-9.6682-15.051-49.546 4.4405-89.069s47.164-58.908 66.145-54.057c16.931 4.3272 5.8225 43.686-4.4405 89.069z" color="#000000" fill="#500" fill-rule="evenodd"/>
  <path d="m-100.88-574.41-493.25 113 535.22 96.906 464.78-120.19-506.75-89.719z" fill="url(#cc)" fill-rule="evenodd"/>
  <path d="m-560.41-306.38 22.35 491.1 468.28 135.81 473.22-167.65z" fill="url(#au)" fill-rule="evenodd" filter="url(#bp)" opacity=".7"/>
  <path d="m-560.42-314.36 22.368 491.07 468.26 135.81 4.8e-5 1e-5v-519.57z" fill="url(#at)" fill-rule="evenodd"/>
  <path d="m-69.796-207.05 453.7-126.31v1e-4l-20.451 478.23-9e-5 3e-5 -433.25 167.65z" fill="url(#cf)" fill-rule="evenodd"/>
  <path d="m-556.82-313.55 8.7815 193.13c55.877 310.09 360.4-33.922 371.18-110.1z" color="#000000" fill="url(#bg)" fill-rule="evenodd" opacity=".2"/>
  <path d="m-560.32-314.31 0.66317 14.811 489.86 113.84v-21.442z" color="#000000" fill="url(#ce)" fill-rule="evenodd" style="block-progression:tb;text-indent:0;text-transform:none"/>
  <path d="m383.77-331.17-453.55 124.09v21.439l4.845-1.3324 447.92-125.42 0.78731-18.774z" color="#000000" fill="url(#cd)" fill-rule="evenodd" style="block-progression:tb;text-indent:0;text-transform:none"/>
  <path d="m-58.964-364.49v162.92l458.26-131.75 6.5792-151.36z" color="#000000" fill="url(#at)" fill-rule="evenodd"/>
  <path d="m-77.781-206.28-0.96875 515.62 10.969 3.1875 10-3.875v-510.44l-20-4.5z" color="#000000" fill="url(#bh)" opacity=".5" style="block-progression:tb;text-indent:0;text-transform:none"/>
  <path d="m-594.12-461.4 6.7783 141.15 7e-5 2e-5 528.43 118.67v-162.99z" color="#000000" fill="url(#at)" fill-rule="evenodd"/>
  <path d="m90.469-540-179.28 43.769-198.29-35.59-92.843 21.442 198.73 36.695-204.7 49.958 18.79 650.12 85.327 24.537-13.705-658.3 200.5-50.401 229.46 42.443 4.8632-1.3263-12.6 658.97 85.548-36.916 17.684-645.92-3.3158 0.88422l-229.67-41.12 176.4-44.43-82.891-14.81z" fill="url(#av)" fill-rule="evenodd"/>
  <path d="m93.785-539.34-180.16 44.211-202.04-36.474-17.021 3.979 202.49 36.474-51.064 12.6-202.27-37.358-17.021 3.979 202.71 37.358-202.93 49.737c-2.6931 1.5549-2.54 2.4455-2.6527 2.6527l17.905 651.23 7.2948 1.9895-18.127-650.12c0-1.4542 0.93232-1.7063 1.9895-1.9895 17.338-3.9913 147.43-33.993 213.76-50.401l43.769 8.179-200.05 49.958c-2.1722 1.1409-2.3006 2.4113-2.4316 2.6527l14.369 656.98 6.8527 1.9895-14.369-656.09c0-1.0714 0.27729-1.4343 0.82805-1.7522 69.128-17.991 141.7-33.161 211.83-50.638l239.58 40.845c2.1087 0.5652 1.5541 1.3592 1.5541 2.1173l-13.006 655.79 7.0738-3.0948 13.042-656.31c6e-3 -0.32752-0.58147-0.88634-1.7684-1.1053l-230.12-42.443 51.285-12.6 235.97 40.533c1.8518 0.31832 2.0817 1.3537 2.0559 2.3346l-16.969 646.6 7.0738-3.0948 17.021-647.03c0.1726-0.60127 0.0354-2.288-1.9895-2.6527l-226.8-40.895 178.39-44.653-17.242-3.0948-178.61 44.653-42.885-7.7369 180.16-44.211zm-179.28 51.285 43.327 7.7369-51.064 12.821-43.327-7.958z" color="#000000" fill="url(#cb)" style="block-progression:tb;text-indent:0;text-transform:none"/>
  <path d="m-58.964-364.49v162.92l458.26-131.75 6.5792-151.36z" color="#000000" fill="url(#ay)" fill-rule="evenodd"/>
  <path d="m383.72-328.81-442.62 127.22-0.0625 0.0312v-0.0312l-10.812-2.4375v516.56l433.21-167.65 20.28-473.69z" fill="url(#cg)" fill-rule="evenodd"/>
  <path d="m13.795-703.72c-1.584 0.063-3.1821 0.56013-4.5938 1.5312l-130.62 89.875c-3.7646 2.5898-4.4799 7.8094-1.7812 11.5l66.656 91.219c2.6962 3.6891 7.7669 4.3709 11.531 1.7812l130.59-89.844c3.7645-2.5898 4.4799-7.8407 1.7812-11.531l-66.625-91.219c-1.6851-2.3057-4.2975-3.4175-6.9375-3.3125z" color="#000000" fill="url(#bm)" fill-rule="evenodd"/>
  <path d="m24.42-695.35-117.22 82.094 3.5625 4.9062 117.22-82.125-3.5625-4.875zm54.406 74.5-116.59 82.875 3.5625 4.875 116.62-82.875-3.5938-4.875z" color="#000000" fill="url(#bt)" style="block-progression:tb;text-indent:0;text-transform:none"/>
  <path d="m93.75-552.81c-0.88368 0.0108-1.7694 0.0302-2.6562 0.0625l-61.219 2.2188c-28.379 1.0326-115.61 25.576-114.19 53.938 1.1208 22.284 77.926 76.075 140.72 59.25l61.219-16.375c27.43-7.3498 43.6-35.351 36.25-62.781-7.1201-26.573-32.731-36.648-60.125-36.312zm-46.188 20.906c14.464-0.2797 28.915 5.3742 33.562 16.594 3.4937 8.4343 2.3355 17.921-1.6562 27.25-37.512-0.65329-69.111-11.044-81.188-25.438 9.2571-2.6687 17.983-6.3268 25.375-11.406 6.5699-4.5148 15.228-6.8322 23.906-7z" color="#000000" fill="url(#bd)" fill-rule="evenodd"/>
  <path d="m64.469-552.16-44.594 1.625c-3.5473 0.12908-7.9952 0.64385-13.094 1.4688l36.812-1.6875c10.825-0.50136 20.783 2.1616 29.656 7.125 11.339 6.3432 26.469 14.009 27.594 27.531 4.028 48.412-42.425 81.631-69.719 81.969 8.2858-3e-3 16.536-0.95291 24.562-3.0312 25.681-11.718 56.562-48.003 53.094-79.75-1.6744-15.328-19.412-25.818-33.344-32.062-3.6821-1.6505-7.0787-1.938-10.938-3.1875z" color="#000000" fill="url(#ax)" fill-rule="evenodd" style="block-progression:tb;text-indent:0;text-transform:none"/>
  <path d="m-203.83-722.35c-1.8332-0.0325-3.6616 0.5588-5.2188 1.8125l-88 70.844c-3.5619 2.8663-3.8391 7.8287-1.25 11.594 35.607 51.779 69.146 80.399 102.91 120.59 2.9387 3.4988 8.0347 4.1156 11.594 1.25l88-70.812c3.5618-2.8663 4.2159-8.1491 1.25-11.625-32.75-40.457-59.882-81.85-102.91-120.59-1.9099-1.7199-4.018-3.0207-6.375-3.0625z" color="#000000" fill="url(#bl)" fill-rule="evenodd"/>
  <path d="m-218.05-713.29-4.6562 3.75c48.021 43.854 77.607 87.708 115.59 131.56l4.6562-3.75c-38.232-44.078-70.657-92.512-115.59-131.56zm-69.062 55.594-4.6562 3.75c45.515 53.264 77.104 87.717 115.59 131.56l4.6562-3.75c-38.53-43.813-73.358-80.616-115.59-131.56z" color="#000000" fill="url(#az)" style="block-progression:tb;text-indent:0;text-transform:none"/>
  <path d="m-148.17-737.01c-3.8154 0.18281-7.0231 3.0374-7.75 6.9688-20.784 51.969-23.298 103.94-28.812 155.91-0.8307 4.4932 2.3571 8.7049 6.875 9.4062l111.62 17.344c4.5151 0.70213 8.6069-2.382 9.4375-6.875 6.0335-52.989 5.4205-107.88 28.812-155.91 0.83064-4.4932-2.3571-8.7049-6.875-9.4062l-111.62-17.344c-0.56438-0.0878-1.1424-0.11987-1.6875-0.0937z" color="#000000" fill="url(#bj)" fill-rule="evenodd"/>
  <path d="m-139.67-735.85c-17.816 59.732-23.276 116.34-30.375 172.34l5.9688 0.9375c5.7086-57.458 11.603-114.92 30.344-172.38zm90.937 14.125c-27.388 57.51-24.126 115.02-29.156 172.53l5.9375 0.9375c3.6879-57.734-0.86492-113.94 29.188-172.53z" color="#000000" fill="url(#bs)" style="block-progression:tb;text-indent:0;text-transform:none"/>
  <path d="m-56.328-639.59 72.435-19.409c32.465-8.699 65.604 10.434 74.303 42.899s-10.434 65.604-42.899 74.303l-72.435 19.409c-32.465 8.699-105.23-5.4735-113.93-37.938-8.699-32.465 50.059-70.565 82.524-79.264z" color="#000000" fill="url(#bk)" fill-rule="evenodd"/>
  <path d="m-319.34-544.5c-22.857-0.25344-43.767 14.856-49.969 38-7.3497 27.43 8.8202 55.431 36.25 62.781l61.219 16.406c27.43 7.3498 148.12-40.133 155.47-67.562 6.095-22.747-67.692-24.33-108.72-28.406 8.4611 0.85268 32.42 25.234 42.649 26.071-21.245 16.205-75.446 10.318-108.34 20.148-0.12439-4.9457 0.43282-9.9988 1.7812-15.031 4.8503-18.101 18.467-31.391 35.062-36.562l-52.594-14.062c-4.2859-1.1484-8.5797-1.7343-12.812-1.7812zm74.031 18.156c0.77886 0.20869 1.6554 0.4006 2.5625 0.59375-0.91906-0.19475-1.7735-0.38233-2.5625-0.59375z" color="#000000" fill="url(#bf)" fill-rule="evenodd"/>
  <path d="m47.562-531.91c0.90398-0.0175 1.8173 2e-3 2.7188 0.0312-0.89903-0.0285-1.8173-0.0487-2.7188-0.0312zm2.7188 0.0312c0.9015 0.0288 1.7933 0.0814 2.6875 0.15625-0.89673-0.075-1.7835-0.12754-2.6875-0.15625zm2.6875 0.15625c0.59962 0.0502 1.1867 0.11664 1.7812 0.1875-0.59456-0.0708-1.1816-0.13733-1.7812-0.1875zm-26.875 5.3125c-0.401 0.22696-0.79894 0.44625-1.1875 0.6875 0.38305-0.23806 0.79246-0.46326 1.1875-0.6875zm46.531 1.0938c0.37469 0.25456 0.73545 0.51214 1.0938 0.78125-0.35583-0.26697-0.72176-0.52862-1.0938-0.78125zm6.4375 6.25c0.17094 0.24731 0.34001 0.49568 0.5 0.75-0.15975-0.25346-0.32936-0.50351-0.5-0.75zm-69.719 1.7188c-0.62837 0.25667-1.2692 0.5366-1.9062 0.78125 0.64444-0.2477 1.2707-0.52123 1.9062-0.78125zm71.781 2.0312c0.21836 0.52714 0.41129 1.0587 0.59375 1.5938-0.18214-0.53384-0.37585-1.0677-0.59375-1.5938zm0.59375 1.5938c0.18246 0.53507 0.35255 1.0826 0.5 1.625-0.14775-0.54341-0.31707-1.0889-0.5-1.625zm0.5 1.625c0.1361 0.50068 0.268 0.99355 0.375 1.5-0.10647-0.50293-0.23979-1.0027-0.375-1.5zm-79.218-2.9c-1.4978 0.49969-3.0001 0.99354-4.5312 1.4375 1.529-0.45 3.0351-0.94 4.5312-1.44zm-4.7188 1.5c-39.78 11.468-89.5 4.9079-86.656 16.781 41.139 41.139 53.168 73.641 115.62 56.938 17.031-4.5548 42.687-26.005 52.219-48.281-37.512-0.65329-69.111-11.044-81.188-25.438zm84.812 6.375c0.04421 0.51945 0.07655 1.0388 0.09375 1.5625-0.01704-0.5218-0.04986-1.0449-0.09375-1.5625zm0.09375 1.6875c0.01628 0.56584 0.01429 1.1173 0 1.6875 0.01396-0.56403 0.01601-1.1278 0-1.6875zm0 1.6875c-0.01429 0.57022-0.04977 1.1447-0.09375 1.7188 0.04372-0.57296 0.07966-1.1496 0.09375-1.7188zm-0.28125 3.5625c-0.07019 0.54503-0.15496 1.0777-0.25 1.625 0.09452-0.54332 0.17999-1.084 0.25-1.625zm-0.25 1.625c-0.18692 1.0765-0.40875 2.1674-0.6875 3.25 0.27854-1.0807 0.50056-2.1755 0.6875-3.25zm-2.4688 8.75c-0.17471 0.44967-0.37434 0.8946-0.5625 1.3438 0.18926-0.45175 0.38684-0.89154 0.5625-1.3438z" color="#000000" fill="url(#be)" fill-rule="evenodd"/>
  <path d="m-50.656-630.84c-5.0098 0.0555-10.084 0.73454-15.156 2.0938l-23.906 11.625c-25.055 16.204-54.681 36.045-49.125 56.781 8.699 32.465 81.441 46.668 113.91 37.969l17.625-4.7188c14.902-14.804 21.629-36.926 15.781-58.75-7.3398-27.392-32.072-45.3-59.125-45z" color="#000000" fill="#800000" fill-rule="evenodd"/>
  <path d="m-25.272-610.28c-3.9268-0.1729-7.9528 0.32737-11.957 1.55l-47.608 14.615c-18.329 5.5976-49.424 27.471-54.251 48.937 0.0354 0.15376 0.17998 0.2891 0.22108 0.44286 5.8317 21.764 40.436 35.251 72.409 39.194 0.76485-0.17857 1.5054-0.44783 2.2143-0.66395l47.608-14.615c21.357-6.5226 34.066-31.237 28.343-55.58-4.6497-19.779-19.963-33.131-36.979-33.879z" color="#000000" fill="url(#bi)" fill-rule="evenodd"/>
  <path d="m-37.219-608.72-9.0625 2.7812c15.947 2.3773 39.555 12.57 43.531 34.594 2.2824 12.642 1.3982 30.341-1.8438 44.281 2.9823-2.2768 5.6659-4.939 7.9688-7.9688 1.5802-12.737 2.4255-27.823-0.3125-38.062-4.0088-14.993-11.511-27.916-40.281-35.625z" color="#000000" fill="#ff0" fill-rule="evenodd" style="block-progression:tb;text-indent:0;text-transform:none"/>
  <path transform="translate(-601.88 -737.01)" d="m299.84 196.94c-23.73-0.27-45.42 15.85-51.84 40.44-5.26 20.15 1.14 40.65 15 53.96 1.88 0.75 3.81 1.4 5.81 1.94l3.94 1.06c-17.74-11.59-26.91-33.97-21.16-56.03 6-22.99 26.2-37.9 48.22-37.65 4.08 0.04 8.21 0.64 12.35 1.78 4.16 0.99 7.72 1.82 11 2.56-16.36 6.2-29.71 21.27-34.5 41.59-4.74 20.05 0 40.38 11.09 54.97l6.56 1.78c-12.98-13.68-18.99-34.83-14.06-55.72 5.18-21.94 20.95-37.2 39.34-40.78 13.98 2.94 14.59 2.24 5.66-0.72 0.67-0.04 1.33-0.08 2-0.09l-10.47-2.81c-0.16 0.04-0.31 0.08-0.47 0.12-5.43-1.6-12.14-3.49-20-5.59l-0.15-0.03c-2.78-0.49-5.57-0.75-8.32-0.78zm76.94 16.78c0.61 0.06 1.28 0.28 2.03 0.56 4.45 0.87 5.9 0.84 4.63 0.06-2.28-0.2-4.54-0.41-6.66-0.62z" color="#000000" fill="url(#bx)" fill-rule="evenodd" style="block-progression:tb;text-indent:0;text-transform:none"/>
  <path d="m-235.91-524.56c1.8567 0.26522 3.8655 0.50884 5.9688 0.75-2.1042-0.24004-4.1105-0.48568-5.9688-0.75zm5.9688 0.75c2.1024 0.24106 4.3148 0.46314 6.625 0.6875-2.3122-0.22332-4.5208-0.44746-6.625-0.6875zm6.625 0.6875c2.3104 0.22438 4.7077 0.44124 7.1875 0.65625-2.4822-0.21417-4.8753-0.43293-7.1875-0.65625zm-67.469 46.062c0.5697 22.65 15.811 43.078 38.844 49.281 43.796-7.1231 129.41-44.126 135.56-67.094 1.4448-5.392-1.6213-9.5758-7.6562-12.906-16.09-1.2972-34.766 7.2482-42.477 5.182-23.456 1.2803-79.047 15.199-124.27 25.537zc-0.03-1.1945-0.0198-2.3885 0.0312-3.5938-0.052 1.1987-0.0611 2.4055-0.0312 3.5938zm0.34375-7.4688c-0.0747 0.63193-0.13595 1.2447-0.1875 1.875 0.0503-0.62603 0.11442-1.2474 0.1875-1.875zm-0.1875 1.875c-0.0497 0.6073-0.0966 1.2072-0.125 1.8125 0.0277-0.60329 0.0764-1.2072 0.125-1.8125z" color="#000000" fill="url(#by)" fill-rule="evenodd"/>
  <path d="m-265.76-623.26 57.563 15.424c25.799 6.913 144.97 35.753 138.06 61.553-6.913 25.799-137.22 38.499-163.01 31.586l-57.563-15.424c-25.799-6.913-41.004-33.248-34.091-59.048 6.913-25.799 33.248-41.004 59.048-34.091z" color="#000000" fill="url(#ba)" fill-rule="evenodd"/>
  <path transform="translate(-601.88 -737.01)" d="m327.41 112.25c-17.3 4.49-31.78 18.78-36.72 38.63-5.05 20.27 1.24 40.89 14.72 54.06 1.85 0.75 3.77 1.4 5.75 1.94l5.53 1.46c-18.13-10.82-27.75-33.74-22.13-56.34 5.77-23.17 25.52-38.02 46.85-36.84l-5.29-1.41c-2.88-0.77-5.81-1.26-8.68-1.5h-0.03zm27.9 6.63c-14.54 6.27-26.28 20.12-30.62 38.5-5.05 21.32 1.24 43.01 14.72 56.87 0.5 0.22 1.01 0.42 1.53 0.63l8.78 2.34c-17.51-11.62-26.68-35.31-21.16-58.66 4.64-19.6 18.32-33.53 34.6-37.59l-7.85-2.09z" color="#000000" fill="url(#bw)" fill-rule="evenodd" style="block-progression:tb;text-indent:0;text-transform:none"/>
  <path d="m-105.25-574.19c-3.456-3e-3 -6.996 0.52392-10.5 1.5938l-7.0625 2.1562c-8.0144 7.7364-14.32 16.53-16.281 25.25 0.0354 0.15376 0.17765 0.28374 0.21875 0.4375 5.5773 20.815 31.173 37.621 61.9 32.968 11.039-1.6717 12.994-16.454 10.162-28.499-4.6497-19.779-19.952-33.127-36.969-33.875-0.49085-0.0216-0.97503-0.0308-1.4688-0.0312z" color="#000000" fill="#800000" fill-rule="evenodd"/>
  <path d="m110.88-551.53c1.681 0.77258 3.3074 1.6135 4.875 2.5625 10.07 6.0961 17.761 15.828 21.094 30.5 6.6715 29.375-8.0953 59.203-32.562 66.938l-28.438 9 41.781-11.188c0.28573-0.0766 0.56048-0.16898 0.84375-0.25 18.729-13.187 28.342-39.579 22.469-65.438-2.8355-12.485-8.7905-21.915-16.656-28.594-4.2278-1.5938-8.7302-2.7384-13.406-3.5312z" color="#000000" fill="url(#aw)" fill-rule="evenodd" style="block-progression:tb;text-indent:0;text-transform:none"/>
  <path d="m-78.406-368.09-0.28125 162.06 19.781 4.4375v-162.97l-19.5-3.5312z" color="#000000" fill="url(#bn)" opacity=".7" style="block-progression:tb;text-indent:0;text-transform:none"/>
  <path d="m-594.12-461.41 535.22 110.84v-16l-535.22-94.844z" color="#000000" fill="#fff" fill-rule="evenodd" filter="url(#bq)"/>
  <path d="m405.88-484.69-464.78 118.12v16l464.78-134.12z" color="#000000" fill="url(#bo)" fill-rule="evenodd" filter="url(#br)"/>
  <path d="m-90-592.25c-5.1978 2.142-11.02 5.2598-16.781 9.0625 26.48-7.662 54.859 14.773 60.031 34.312 2.9254 13.935 0.664 27.929-5.125 38.875l5.7812-1.7812 2.125-0.65625c4.4903-11.354 5.8166-24.701 3.0312-37.969-9.185-25.09-27.445-40.97-49.062-41.84z" color="#000000" fill="#ff0" fill-rule="evenodd" style="block-progression:tb;text-indent:0;text-transform:none"/>
  <path d="m-145.19-618.8-55.036-20.982c-24.667-9.4039-49.846 11.28-56.456 46.375-6.6094 35.096 7.9278 70.92 32.595 80.324l55.036 20.982c24.667 9.4039 79.953-5.917 86.563-41.013 6.6095-35.096-38.035-76.283-62.702-85.687z" color="#000000" fill="url(#bb)" fill-rule="evenodd"/>
  <path d="m-149.5-609.35c3.8064 0.06 7.6615 0.79406 11.516 2.2634l23.981 9.155c19.036 17.517 35.729 42.378 31.508 64.794-6.6094 35.096-61.879 50.449-86.546 41.046l-13.391-5.1011c-11.322-16.004-16.434-39.918-11.991-63.511 5.5768-29.612 24.368-48.971 44.923-48.647z" color="#000000" fill="#800000" fill-rule="evenodd"/>
  <path d="m-78.733-553.29c39.538-3.5332 68.947 10.349 68.193 65.124-0.51376 37.304 6.4182 68.321-29.618 77.977-144.5 41.823-187.84-129.76-38.575-143.1z" color="#000000" fill="url(#bc)" fill-rule="evenodd"/>
  <path d="m-145.75-533.06c-14.261 10.902-25.16 40.251-25.16 40.251s7.0391 54.647 32.097 72.155c10.533-41.226 22.469-104.53-6.9375-112.41z" color="#000000" fill="#800000" fill-rule="evenodd"/>
  <path d="m21.625-660.22c-1.8412 0.31697-3.6898 0.72534-5.5312 1.2188l-7.3125 1.9688c1.5007-0.0484 2.9832-0.0617 4.4688 0 28.45 1.1822 53.94 22.272 61.75 54.031 4.1366 16.822 2.5531 33.757-3.4062 48.438 2.3661-2.1082 4.5893-4.3759 6.5938-6.8125 3.8051-13.399 4.3036-28.078 0.71875-42.656-7.4603-30.339-30.497-51.578-57.281-56.188z" color="#000000" fill="url(#ca)" fill-rule="evenodd" style="block-progression:tb;text-indent:0;text-transform:none"/>
  <path d="m-34.969-645.31-9.1875 2.4688c33.412 4.3527 62.06 23.734 71.469 51.531 6.2448 18.45 1.3675 40.235-4.8125 56.219l6.625-1.7812c5.356-14.113 9.8303-36.457 3.4062-55.438-9.1138-26.927-35.659-46.455-67.5-53z" color="#000000" fill="url(#bz)" fill-rule="evenodd" style="block-progression:tb;text-indent:0;text-transform:none"/>
  <path transform="translate(-601.88 -737.01)" d="m541.53 183.47c3.35 1.66 6.43 3.73 9.22 6.22 11.62 10.35 18.62 28.43 18.25 58.19-0.26 20.67 1.27 39.42-1.47 53.9-2.71 14.33-9.09 24.45-26.15 29.66 5.22-0.86 10.61-2.01 16.15-3.47l0.03-0.03c7.86-6.36 11.98-15.11 13.91-25.28 2.93-15.52 1.27-34.36 1.53-54.75 0.38-30.55-6.97-50.27-19.75-61.66-0.51-0.45-1.04-0.89-1.56-1.31-3.24-0.71-6.64-1.2-10.16-1.47zm-54.19 7.44c-1.52 0.51-3.01 1.06-4.46 1.62 0.48 0.37 0.94 0.77 1.4 1.16 11.62 9.75 18.59 26.76 18.22 54.78-0.26 19.47 1.3 37.12-1.44 50.75-2.51 12.52-8.2 21.65-22.65 26.81 1.85 0.75 3.76 1.42 5.71 2.06 12.49-5.99 18.42-15.94 20.85-28.03 2.93-14.61 1.27-32.36 1.53-51.56 0.38-28.35-6.72-46.8-19.16-57.59z" color="#000000" fill="url(#bu)" fill-rule="evenodd" style="block-progression:tb;text-indent:0;text-transform:none"/>
  <path transform="translate(-601.88 -737.01)" d="m399.66 96.5c-6.31 1.303-12.34 4.42-17.66 9.03-10.65 9.24-18.76 24.37-22.12 43.25-3.37 18.89-1.38 37.93 4.65 53.63 3.12 8.12 7.36 15.35 12.5 21.18 0.25 0.11 0.5 0.22 0.75 0.32l9.63 3.68c-8.05-5.86-14.64-15.23-19.03-26.65-5.75-14.94-7.71-33.3-4.47-51.44 3.23-18.14 11.03-32.43 20.78-40.88 6.09-5.28 12.87-8.31 19.93-8.714 1.43-0.08 2.88-0.042 4.32 0.094l-7.28-2.781c-0.67-0.255-1.34-0.508-2-0.719zm35.59 14.16c-0.61 0-1.21 0.02-1.81 0.06-8.05 0.47-15.78 3.88-22.44 9.66-10.65 9.23-18.76 24.36-22.12 43.24-3.37 18.89-1.38 37.94 4.65 53.63 2.23 5.79 5.01 11.11 8.28 15.81l7.5 2.88c-4.85-5.44-8.92-12.31-11.93-20.16-5.75-14.94-7.71-33.3-4.47-51.44 3.23-18.13 11.03-32.42 20.78-40.87 6.09-5.28 12.87-8.32 19.93-8.72 4.24-0.24 8.55 0.47 12.91 2.22l28.06 11.28c-6.41-4.56-12.62-8.05-17.9-10.06l-19.6-7.47c-0.61-0.03-1.23-0.07-1.84-0.06z" color="#000000" fill="url(#bv)" fill-rule="evenodd" style="block-progression:tb;text-indent:0;text-transform:none"/>
 </g>
</svg>
